<svg id="svg66" xmlns="http://www.w3.org/2000/svg" viewBox="0 0 867.09 300"><defs><style>.cls-1{fill:#1a1a1b;}.cls-2{fill:#ff4500;}.cls-3{fill:#fff;}.cls-4{fill:#d7dadc;}</style></defs><rect class="cls-1" x="-45.15" y="-24.64" width="990.64" height="386.04"/><circle id="circle58" class="cls-2" cx="112.28" cy="144.17" r="82.2"/><path id="path60" class="cls-3" d="M167.15,144.17a12,12,0,0,0-20.28-8.68c-8.17-6-19.46-9.78-32.07-10.18l5.45-25.72,17.85,3.83a8.61,8.61,0,1,0,.91-4.24L119,95a2.35,2.35,0,0,0-1.61.3,2,2,0,0,0-.91,1.31l-6.05,28.65c-12.81.4-24.21,4.13-32.58,10.18A12,12,0,1,0,64.67,155a22.22,22.22,0,0,0-.3,3.63c0,18.46,21.48,33.39,48,33.39s48-14.93,48-33.39a22.22,22.22,0,0,0-.3-3.63,11.58,11.58,0,0,0,7.06-10.79Zm-82.21,8.57a8.58,8.58,0,1,1,8.58,8.57A8.57,8.57,0,0,1,84.94,152.74Zm47.71,22.59c-5.85,5.85-17,6.26-20.37,6.26s-14.53-.41-20.38-6.26A2.21,2.21,0,0,1,95,172.21c3.73,3.73,11.6,4.94,17.15,4.94s13.51-1.31,17.24-5a2.13,2.13,0,0,1,3.13,0,2.16,2.16,0,0,1,.1,3.22Zm-1.51-14a8.57,8.57,0,1,1,8.57-8.57A8.57,8.57,0,0,1,131.14,161.31Z"/><circle id="circle41" class="cls-2" cx="785.05" cy="115.27" r="11.07"/><path id="path43" class="cls-4" d="M628.74,162c5.44,0,8.45-3.94,8.26-7.88-.19-2.06-.38-3.37-.57-4.5-3.19-14.26-14.82-24.77-28.71-24.77-16.32,0-29.46,14.82-29.46,33s13.33,33,29.46,33c10.14,0,17.46-3.75,22.9-9.57a6.4,6.4,0,0,0-1.13-9.57c-2.63-1.87-5.82-1.12-8.26.75-2.25,1.88-6.56,5.82-13.51,5.82-8.25,0-15.2-7.13-16.88-16.51h37.9Zm-21-24.77c7.51,0,13.89,5.82,16.14,13.7H591.4C593.84,143,600.22,137.22,607.72,137.22Z"/><path id="path47" class="cls-4" d="M791.25,138a6.2,6.2,0,0,0-12.39,0v45.42a6.2,6.2,0,0,0,12.39,0Z"/><circle id="circle41-2" data-name="circle41" class="cls-2" cx="306.54" cy="115.27" r="11.07"/><path id="path47-2" data-name="path47" class="cls-4" d="M312.73,138a6.2,6.2,0,0,0-12.39,0v45.42a6.2,6.2,0,0,0,12.39,0Z"/><path id="path49" class="cls-4" d="M699.11,103.64a6.2,6.2,0,1,0-12.39,0v27.58A21.78,21.78,0,0,0,671,124.84c-16.32,0-29.46,14.82-29.46,33s13.32,33,29.46,33a22.23,22.23,0,0,0,15.95-6.38,6.15,6.15,0,0,0,12.2-1.12V103.64ZM671,178.51c-9.57,0-17.26-9.2-17.26-20.64s7.69-20.65,17.26-20.65,17.27,9.2,17.27,20.65S680.53,178.51,671,178.51Z"/><path id="path49-2" data-name="path49" class="cls-4" d="M439.56,103.64a6.19,6.19,0,1,0-12.38,0v27.58a21.8,21.8,0,0,0-15.76-6.38c-16.33,0-29.46,14.82-29.46,33s13.32,33,29.46,33a22.24,22.24,0,0,0,15.95-6.38,6.14,6.14,0,0,0,12.19-1.12V103.64Zm-28.14,74.87c-9.57,0-17.27-9.2-17.27-20.64s7.7-20.65,17.27-20.65,17.26,9.2,17.26,20.65S421,178.51,411.42,178.51Z"/><path id="path49-3" data-name="path49" class="cls-4" d="M507.18,131.05a6.19,6.19,0,0,0-12.38,0v.17A21.8,21.8,0,0,0,479,124.84c-16.33,0-29.46,14.82-29.46,33s13.32,33,29.46,33A22.24,22.24,0,0,0,495,184.51a6.14,6.14,0,0,0,12.19-1.12V131.05ZM479,178.51c-9.57,0-17.27-9.2-17.27-20.64s7.7-20.65,17.27-20.65,17.26,9.2,17.26,20.65S488.61,178.51,479,178.51Z"/><path id="path51" class="cls-4" d="M763.66,103.64a6.19,6.19,0,1,0-12.38,0v27.58a21.81,21.81,0,0,0-15.77-6.38c-16.32,0-29.46,14.82-29.46,33s13.33,33,29.46,33a22.23,22.23,0,0,0,16-6.38,6.15,6.15,0,0,0,12.2-1.12V103.64Zm-28.15,74.87c-9.57,0-17.26-9.2-17.26-20.64s7.69-20.65,17.26-20.65,17.27,9.2,17.27,20.65S745.08,178.51,735.51,178.51Z"/><path id="path53" class="cls-4" d="M822.58,183.39V137.22H828a5.54,5.54,0,0,0,5.63-5.06,5.42,5.42,0,0,0-5.44-5.82h-5.63v-8.63a6.19,6.19,0,1,0-12.38-.19v9h-5.07a5.56,5.56,0,0,0-5.63,5.06,5.42,5.42,0,0,0,5.44,5.82h5.26v46a6.25,6.25,0,0,0,6.19,6.19,6.12,6.12,0,0,0,6.19-6.19Z"/><path class="cls-4" d="M237.71,184a5.58,5.58,0,0,1-1.45,4.07,5.8,5.8,0,0,1-7.72,0,5.54,5.54,0,0,1-1.45-4.07v-74.2a5.51,5.51,0,0,1,1.45-4.06,5.77,5.77,0,0,1,7.72,0,5.55,5.55,0,0,1,1.45,4.06v30.62L274.5,107.6c1-.86,1.89-1.63,2.78-2.29a4.84,4.84,0,0,1,3-1,4.58,4.58,0,0,1,3.32,1.24,4.36,4.36,0,0,1,1.27,3.24,5.62,5.62,0,0,1-.61,3,8,8,0,0,1-1.57,1.76l-35.22,31L286,180.75a6.66,6.66,0,0,1,1.75,2.12,5.1,5.1,0,0,1,.42,2.11,4.19,4.19,0,0,1-1.51,3.24,5.26,5.26,0,0,1-3.67,1.36,7.85,7.85,0,0,1-2.36-.36,8.25,8.25,0,0,1-2.83-1.88l-40-38.4Z"/><path class="cls-4" d="M321,131.37a5.5,5.5,0,0,1,1.44-4,5.18,5.18,0,0,1,3.86-1.47,5.11,5.11,0,0,1,3.86,1.5,5.68,5.68,0,0,1,1.45,4.13V134l.24.24a19.67,19.67,0,0,1,8.21-6.47,25,25,0,0,1,9.53-1.92,25.56,25.56,0,0,1,7.66,1.23,20.3,20.3,0,0,1,7.18,4,21.6,21.6,0,0,1,5.36,7.32,26,26,0,0,1,2.12,11.07v34.55a5.5,5.5,0,0,1-1.45,4,5.82,5.82,0,0,1-7.72,0,5.44,5.44,0,0,1-1.45-4V150.25a16.75,16.75,0,0,0-1.33-7,13.43,13.43,0,0,0-3.44-4.73,13.92,13.92,0,0,0-4.76-2.68,16.46,16.46,0,0,0-10.62,0,13.92,13.92,0,0,0-4.76,2.68,13.43,13.43,0,0,0-3.44,4.73,16.75,16.75,0,0,0-1.33,7v33.84a5.44,5.44,0,0,1-1.45,4,5.82,5.82,0,0,1-7.72,0,5.5,5.5,0,0,1-1.44-4Z"/><path class="cls-4" d="M530.62,184a5.63,5.63,0,0,1-1.45,4.09,5.74,5.74,0,0,1-7.72,0A5.59,5.59,0,0,1,520,184V110a6.23,6.23,0,0,1,1.33-4,5.22,5.22,0,0,1,4.34-1.67h19.66a30.39,30.39,0,0,1,9.84,1.62,25.79,25.79,0,0,1,8.38,4.67,24.47,24.47,0,0,1,5.85,7.25,19.78,19.78,0,0,1,2.23,9.46,28.49,28.49,0,0,1-1.87,11,20,20,0,0,1-5.06,7.36,20.46,20.46,0,0,1-7.42,4.26,35,35,0,0,1-9,1.61l-4.58.12L571,180.88a6.6,6.6,0,0,1,2.05,4.7,3.56,3.56,0,0,1-1.39,2.82,5.09,5.09,0,0,1-3.43,1.18,5,5,0,0,1-2.78-.71,13.38,13.38,0,0,1-2.05-1.67l-32.81-35.39Zm0-40.29h14.47q8.32,0,12.13-3.72t3.8-12a13.86,13.86,0,0,0-1.15-5.63,13.69,13.69,0,0,0-3.26-4.61,16.14,16.14,0,0,0-5.06-3.18,17.9,17.9,0,0,0-6.7-1.19H530.62Z"/></svg>